<svg width="289" height="447" viewBox="0 0 289 447" fill="none" xmlns="http://www.w3.org/2000/svg">
<path d="M135.638 2.73232L122.307 17.9699C117.781 23.1427 121.455 31.2376 128.328 31.2376H156.078C163.1 31.2376 166.715 22.8387 161.889 17.7389L147.47 2.50127C144.228 -0.923836 138.743 -0.816709 135.638 2.73232Z" fill="#FB6500"/>
<path d="M128.258 56.3247V43.1539H148.325L128.258 56.3247Z" fill="#FB6500"/>
<path d="M128.258 78.2759V66.6731L158.045 48.4849V60.0877L128.258 78.2759Z" fill="#FB6500"/>
<path d="M126.987 99.9496V88.9739L159.91 66.6731V78.2759L126.987 99.9496Z" fill="#FB6500"/>
<path d="M126.063 122.178V110.576L160.867 89.5651V100.541L126.063 122.178Z" fill="#FB6500"/>
<path d="M138.902 122.178L160.867 108.694V122.178H138.902Z" fill="#FB6500"/>
<path d="M221.382 150.715C163.187 117.098 93.872 136.708 66.4888 150.715C57.2077 154.869 72.4462 167.08 81.2256 172.039C90.632 162.318 118.851 151.969 144.249 159.182C170.085 148.896 197.029 163.468 207.272 172.039C220.441 162.631 229.534 155.424 221.382 150.715Z" fill="#FB6500"/>
<path d="M138.918 173.92C138.7 171.412 126.063 168.903 120.419 170.471L121.673 400.645C125.018 419.879 135.469 437.649 144.249 446.116C154.282 436.332 164.316 411.725 168.078 400.645V170.471C161.807 167.962 151.878 170.889 148.952 173.92L144.249 302.492C144.249 302.492 139.883 185.014 138.918 173.92Z" fill="#FB6500"/>
<path d="M177.798 115.279V92.701L288.794 129.391C292.808 319.049 237.372 368.659 183.129 402.213V375.872C258.631 339.495 271.027 206.22 267.787 144.13C237.791 134.617 177.798 115.279 177.798 115.279Z" fill="#FB6500"/>
<path d="M110.699 115.279V92.701L0.957204 129.391C-3.43242 215.941 3.46565 338.868 104.742 402.213V375.872C25.9784 327.704 15.903 201.307 20.7107 144.13L110.699 115.279Z" fill="#FB6500"/>
</svg>
